<svg xmlns="http://www.w3.org/2000/svg" viewBox="0 0 64 64" fill="none" stroke-width="4px" stroke="#222"><path d="M56 32a24.17 24.17 0 0 0-.32-3.89L48 25.37 51.5 18a24.14 24.14 0 0 0-5.5-5.5L38.63 16l-2.74-7.68a24.15 24.15 0 0 0-7.78 0L25.37 16 18 12.5a24.14 24.14 0 0 0-5.5 5.5l3.5 7.37-7.68 2.74a24.15 24.15 0 0 0 0 7.78L16 38.63 12.5 46a24.13 24.13 0 0 0 5.5 5.5l7.37-3.5 2.73 7.69a24.14 24.14 0 0 0 7.78 0L38.63 48 46 51.5a24.13 24.13 0 0 0 5.5-5.5L48 38.63l7.69-2.73A24.18 24.18 0 0 0 56 32z"/><circle cx="32" cy="32" r="4"/></svg>